<?xml version="1.0" encoding="UTF-8"?>
<svg width="700pt" height="700pt" version="1.1" viewBox="0 0 700 700" xmlns="http://www.w3.org/2000/svg" xmlns:xlink="http://www.w3.org/1999/xlink">
 <defs>
  <symbol id="w" overflow="visible">
   <path d="m18.766-1.125c-0.96875 0.5-1.9805 0.875-3.0312 1.125-1.043 0.25781-2.1367 0.39062-3.2812 0.39062-3.3984 0-6.0898-0.94531-8.0781-2.8438-1.9922-1.9062-2.9844-4.4844-2.9844-7.7344 0-3.2578 0.99219-5.8359 2.9844-7.7344 1.9883-1.9062 4.6797-2.8594 8.0781-2.8594 1.1445 0 2.2383 0.13281 3.2812 0.39062 1.0508 0.25 2.0625 0.625 3.0312 1.125v4.2188c-0.98047-0.65625-1.9453-1.1406-2.8906-1.4531-0.94922-0.3125-1.9492-0.46875-3-0.46875-1.875 0-3.3516 0.60547-4.4219 1.8125-1.0742 1.1992-1.6094 2.8555-1.6094 4.9688 0 2.1055 0.53516 3.7617 1.6094 4.9688 1.0703 1.1992 2.5469 1.7969 4.4219 1.7969 1.0508 0 2.0508-0.14844 3-0.45312 0.94531-0.3125 1.9102-0.80078 2.8906-1.4688z"/>
  </symbol>
  <symbol id="b" overflow="visible">
   <path d="m13.734-11.141c-0.4375-0.19531-0.87109-0.34375-1.2969-0.4375-0.41797-0.10156-0.83984-0.15625-1.2656-0.15625-1.2617 0-2.2305 0.40625-2.9062 1.2188-0.67969 0.80469-1.0156 1.9531-1.0156 3.4531v7.0625h-4.8906v-15.312h4.8906v2.5156c0.625-1 1.3438-1.7266 2.1562-2.1875 0.82031-0.46875 1.8008-0.70312 2.9375-0.70312 0.16406 0 0.34375 0.011719 0.53125 0.03125 0.19531 0.011719 0.47656 0.039062 0.84375 0.078125z"/>
  </symbol>
  <symbol id="a" overflow="visible">
   <path d="m17.641-7.7031v1.4062h-11.453c0.125 1.1484 0.53906 2.0078 1.25 2.5781 0.70703 0.57422 1.7031 0.85938 2.9844 0.85938 1.0312 0 2.082-0.14844 3.1562-0.45312 1.082-0.3125 2.1914-0.77344 3.3281-1.3906v3.7656c-1.1562 0.4375-2.3125 0.76562-3.4688 0.98438-1.1562 0.22656-2.3125 0.34375-3.4688 0.34375-2.7734 0-4.9297-0.70312-6.4688-2.1094-1.5312-1.4062-2.2969-3.3789-2.2969-5.9219 0-2.5 0.75391-4.4609 2.2656-5.8906 1.5078-1.4375 3.582-2.1562 6.2188-2.1562 2.4062 0 4.332 0.73047 5.7812 2.1875 1.4453 1.4492 2.1719 3.3828 2.1719 5.7969zm-5.0312-1.625c0-0.92578-0.27344-1.6719-0.8125-2.2344-0.54297-0.57031-1.25-0.85938-2.125-0.85938-0.94922 0-1.7188 0.26562-2.3125 0.79688s-0.96484 1.2969-1.1094 2.2969z"/>
  </symbol>
  <symbol id="f" overflow="visible">
   <path d="m9.2188-6.8906c-1.0234 0-1.793 0.17188-2.3125 0.51562-0.51172 0.34375-0.76562 0.85547-0.76562 1.5312 0 0.625 0.20703 1.1172 0.625 1.4688 0.41406 0.34375 0.98828 0.51562 1.7188 0.51562 0.92578 0 1.7031-0.32812 2.3281-0.98438 0.63281-0.66406 0.95312-1.4922 0.95312-2.4844v-0.5625zm7.4688-1.8438v8.7344h-4.9219v-2.2656c-0.65625 0.92969-1.3984 1.6055-2.2188 2.0312-0.82422 0.41406-1.8242 0.625-3 0.625-1.5859 0-2.8711-0.45703-3.8594-1.375-0.99219-0.92578-1.4844-2.1289-1.4844-3.6094 0-1.7891 0.61328-3.1016 1.8438-3.9375 1.2383-0.84375 3.1797-1.2656 5.8281-1.2656h2.8906v-0.39062c0-0.76953-0.30859-1.332-0.92188-1.6875-0.61719-0.36328-1.5703-0.54688-2.8594-0.54688-1.0547 0-2.0312 0.10547-2.9375 0.3125-0.89844 0.21094-1.7305 0.52344-2.5 0.9375v-3.7344c1.0391-0.25 2.0859-0.44141 3.1406-0.57812 1.0625-0.13281 2.125-0.20312 3.1875-0.20312 2.7578 0 4.75 0.54688 5.9688 1.6406 1.2266 1.0859 1.8438 2.8555 1.8438 5.3125z"/>
  </symbol>
  <symbol id="c" overflow="visible">
   <path d="m7.7031-19.656v4.3438h5.0469v3.5h-5.0469v6.5c0 0.71094 0.14062 1.1875 0.42188 1.4375s0.83594 0.375 1.6719 0.375h2.5156v3.5h-4.1875c-1.9375 0-3.3125-0.39844-4.125-1.2031-0.80469-0.8125-1.2031-2.1797-1.2031-4.1094v-6.5h-2.4219v-3.5h2.4219v-4.3438z"/>
  </symbol>
  <symbol id="l" overflow="visible">
   <path d="m12.766-13.078v-8.2031h4.9219v21.281h-4.9219v-2.2188c-0.66797 0.90625-1.4062 1.5703-2.2188 1.9844s-1.7578 0.625-2.8281 0.625c-1.8867 0-3.4336-0.75-4.6406-2.25-1.2109-1.5-1.8125-3.4258-1.8125-5.7812 0-2.3633 0.60156-4.2969 1.8125-5.7969 1.207-1.5 2.7539-2.25 4.6406-2.25 1.0625 0 2 0.21484 2.8125 0.64062 0.82031 0.42969 1.5664 1.0859 2.2344 1.9688zm-3.2188 9.9219c1.0391 0 1.8359-0.37891 2.3906-1.1406 0.55078-0.76953 0.82812-1.8828 0.82812-3.3438 0-1.457-0.27734-2.5664-0.82812-3.3281-0.55469-0.76953-1.3516-1.1562-2.3906-1.1562-1.043 0-1.8398 0.38672-2.3906 1.1562-0.55469 0.76172-0.82812 1.8711-0.82812 3.3281 0 1.4609 0.27344 2.5742 0.82812 3.3438 0.55078 0.76172 1.3477 1.1406 2.3906 1.1406z"/>
  </symbol>
  <symbol id="k" overflow="visible">
   <path d="m10.5-3.1562c1.0508 0 1.8516-0.37891 2.4062-1.1406 0.55078-0.76953 0.82812-1.8828 0.82812-3.3438 0-1.457-0.27734-2.5664-0.82812-3.3281-0.55469-0.76953-1.3555-1.1562-2.4062-1.1562-1.0547 0-1.8594 0.38672-2.4219 1.1562-0.55469 0.77344-0.82812 1.8828-0.82812 3.3281 0 1.4492 0.27344 2.5586 0.82812 3.3281 0.5625 0.77344 1.3672 1.1562 2.4219 1.1562zm-3.25-9.9219c0.67578-0.88281 1.4219-1.5391 2.2344-1.9688 0.82031-0.42578 1.7656-0.64062 2.8281-0.64062 1.8945 0 3.4453 0.75 4.6562 2.25 1.207 1.5 1.8125 3.4336 1.8125 5.7969 0 2.3555-0.60547 4.2812-1.8125 5.7812-1.2109 1.5-2.7617 2.25-4.6562 2.25-1.0625 0-2.0078-0.21094-2.8281-0.625-0.8125-0.42578-1.5586-1.0859-2.2344-1.9844v2.2188h-4.8906v-21.281h4.8906z"/>
  </symbol>
  <symbol id="j" overflow="visible">
   <path d="m0.34375-15.312h4.8906l4.125 10.391 3.5-10.391h4.8906l-6.4375 16.766c-0.64844 1.6953-1.4023 2.8828-2.2656 3.5625-0.86719 0.6875-2 1.0312-3.4062 1.0312h-2.8438v-3.2188h1.5312c0.83203 0 1.4375-0.13672 1.8125-0.40625 0.38281-0.26172 0.67969-0.73047 0.89062-1.4062l0.14062-0.42188z"/>
  </symbol>
  <symbol id="e" overflow="visible">
   <path d="m16.547-12.766c0.61328-0.94531 1.3477-1.6719 2.2031-2.1719 0.85156-0.5 1.7891-0.75 2.8125-0.75 1.7578 0 3.0977 0.54688 4.0156 1.6406 0.92578 1.0859 1.3906 2.6562 1.3906 4.7188v9.3281h-4.9219v-7.9844-0.35938c0.007813-0.13281 0.015625-0.32031 0.015625-0.5625 0-1.082-0.16406-1.8633-0.48438-2.3438-0.3125-0.48828-0.82422-0.73438-1.5312-0.73438-0.92969 0-1.6484 0.38672-2.1562 1.1562-0.51172 0.76172-0.77344 1.8672-0.78125 3.3125v7.5156h-4.9219v-7.9844c0-1.6953-0.14844-2.7852-0.4375-3.2656-0.29297-0.48828-0.8125-0.73438-1.5625-0.73438-0.9375 0-1.6641 0.38672-2.1719 1.1562-0.51172 0.76172-0.76562 1.8594-0.76562 3.2969v7.5312h-4.9219v-15.312h4.9219v2.2344c0.60156-0.86328 1.2891-1.5156 2.0625-1.9531 0.78125-0.4375 1.6406-0.65625 2.5781-0.65625 1.0625 0 2 0.25781 2.8125 0.76562 0.8125 0.51172 1.4258 1.2305 1.8438 2.1562z"/>
  </symbol>
  <symbol id="i" overflow="visible">
   <path d="m2.3594-15.312h4.8906v15.312h-4.8906zm0-5.9688h4.8906v4h-4.8906z"/>
  </symbol>
  <symbol id="v" overflow="visible">
   <path d="m2.3594-21.281h4.8906v21.281h-4.8906z"/>
  </symbol>
  <symbol id="u" overflow="visible">
   <path d="m12.766-2.5938c-0.66797 0.88672-1.4062 1.543-2.2188 1.9688-0.8125 0.41797-1.7578 0.625-2.8281 0.625-1.8672 0-3.4062-0.73438-4.625-2.2031-1.2188-1.4766-1.8281-3.3516-1.8281-5.625 0-2.2891 0.60938-4.1641 1.8281-5.625 1.2188-1.4688 2.7578-2.2031 4.625-2.2031 1.0703 0 2.0156 0.21484 2.8281 0.64062 0.8125 0.41797 1.5508 1.0742 2.2188 1.9688v-2.2656h4.9219v13.766c0 2.457-0.77734 4.3359-2.3281 5.6406-1.5547 1.3008-3.8086 1.9531-6.7656 1.9531-0.94922 0-1.8711-0.074219-2.7656-0.21875-0.89844-0.14844-1.7969-0.37109-2.7031-0.67188v-3.8125c0.86328 0.48828 1.7031 0.85156 2.5156 1.0938 0.82031 0.23828 1.6484 0.35938 2.4844 0.35938 1.6016 0 2.7734-0.35156 3.5156-1.0469 0.75-0.69922 1.125-1.7969 1.125-3.2969zm-3.2188-9.5312c-1.0117 0-1.8047 0.375-2.375 1.125-0.5625 0.74219-0.84375 1.7969-0.84375 3.1719 0 1.3984 0.26953 2.4609 0.8125 3.1875 0.55078 0.71875 1.3516 1.0781 2.4062 1.0781 1.0195 0 1.8125-0.36719 2.375-1.1094 0.5625-0.75 0.84375-1.8008 0.84375-3.1562 0-1.375-0.28125-2.4297-0.84375-3.1719-0.5625-0.75-1.3555-1.125-2.375-1.125z"/>
  </symbol>
  <symbol id="t" overflow="visible">
   <path d="m7.25-2.2188v8.0469h-4.8906v-21.141h4.8906v2.2344c0.67578-0.88281 1.4219-1.5391 2.2344-1.9688 0.82031-0.42578 1.7656-0.64062 2.8281-0.64062 1.8945 0 3.4453 0.75 4.6562 2.25 1.207 1.5 1.8125 3.4336 1.8125 5.7969 0 2.3555-0.60547 4.2812-1.8125 5.7812-1.2109 1.5-2.7617 2.25-4.6562 2.25-1.0625 0-2.0078-0.21094-2.8281-0.625-0.8125-0.42578-1.5586-1.0859-2.2344-1.9844zm3.25-9.9062c-1.0547 0-1.8594 0.38672-2.4219 1.1562-0.55469 0.77344-0.82812 1.8828-0.82812 3.3281 0 1.4492 0.27344 2.5586 0.82812 3.3281 0.5625 0.77344 1.3672 1.1562 2.4219 1.1562 1.0508 0 1.8516-0.37891 2.4062-1.1406 0.55078-0.76953 0.82812-1.8828 0.82812-3.3438 0-1.457-0.27734-2.5664-0.82812-3.3281-0.55469-0.76953-1.3555-1.1562-2.4062-1.1562z"/>
  </symbol>
  <symbol id="h" overflow="visible">
   <path d="m17.75-9.3281v9.3281h-4.9219v-7.1094c0-1.3438-0.03125-2.2656-0.09375-2.7656s-0.16797-0.86719-0.3125-1.1094c-0.1875-0.3125-0.44922-0.55469-0.78125-0.73438-0.32422-0.17578-0.69531-0.26562-1.1094-0.26562-1.0234 0-1.8242 0.39844-2.4062 1.1875-0.58594 0.78125-0.875 1.8711-0.875 3.2656v7.5312h-4.8906v-21.281h4.8906v8.2031c0.73828-0.88281 1.5195-1.5391 2.3438-1.9688 0.83203-0.42578 1.75-0.64062 2.75-0.64062 1.7695 0 3.1133 0.54688 4.0312 1.6406 0.91406 1.0859 1.375 2.6562 1.375 4.7188z"/>
  </symbol>
  <symbol id="g" overflow="visible">
   <path d="m14.719-14.828v3.9844c-0.65625-0.45703-1.3242-0.79688-2-1.0156-0.66797-0.21875-1.3594-0.32812-2.0781-0.32812-1.3672 0-2.4336 0.40234-3.2031 1.2031-0.76172 0.79297-1.1406 1.9062-1.1406 3.3438 0 1.4297 0.37891 2.543 1.1406 3.3438 0.76953 0.79297 1.8359 1.1875 3.2031 1.1875 0.75781 0 1.4844-0.10938 2.1719-0.32812 0.6875-0.22656 1.3203-0.56641 1.9062-1.0156v4c-0.76172 0.28125-1.5391 0.48828-2.3281 0.625-0.78125 0.14453-1.5742 0.21875-2.375 0.21875-2.7617 0-4.9219-0.70703-6.4844-2.125-1.5547-1.4141-2.3281-3.3828-2.3281-5.9062 0-2.5312 0.77344-4.5039 2.3281-5.9219 1.5625-1.4141 3.7227-2.125 6.4844-2.125 0.80078 0 1.5938 0.074219 2.375 0.21875 0.78125 0.13672 1.5547 0.35156 2.3281 0.64062z"/>
  </symbol>
  <symbol id="s" overflow="visible">
   <path d="m14.312-14.828v3.7188c-1.043-0.4375-2.0547-0.76562-3.0312-0.98438-0.98047-0.21875-1.9023-0.32812-2.7656-0.32812-0.92969 0-1.6211 0.11719-2.0781 0.34375-0.44922 0.23047-0.67188 0.58984-0.67188 1.0781 0 0.38672 0.17188 0.68359 0.51562 0.89062 0.34375 0.21094 0.95703 0.36719 1.8438 0.46875l0.85938 0.125c2.5078 0.32422 4.1953 0.85156 5.0625 1.5781 0.86328 0.73047 1.2969 1.8711 1.2969 3.4219 0 1.6367-0.60547 2.8672-1.8125 3.6875-1.1992 0.8125-2.9922 1.2188-5.375 1.2188-1.0234 0-2.0742-0.078125-3.1562-0.23438-1.0742-0.15625-2.1797-0.39453-3.3125-0.71875v-3.7188c0.96875 0.48047 1.9609 0.83984 2.9844 1.0781 1.0312 0.23047 2.0781 0.34375 3.1406 0.34375 0.95703 0 1.6758-0.12891 2.1562-0.39062 0.47656-0.26953 0.71875-0.66406 0.71875-1.1875 0-0.4375-0.16797-0.75781-0.5-0.96875-0.33594-0.21875-0.99609-0.38281-1.9844-0.5l-0.85938-0.10938c-2.1797-0.26953-3.7031-0.77344-4.5781-1.5156-0.875-0.73828-1.3125-1.8594-1.3125-3.3594 0-1.625 0.55078-2.8281 1.6562-3.6094 1.1133-0.78906 2.8203-1.1875 5.125-1.1875 0.89453 0 1.8359 0.074219 2.8281 0.21875 1 0.13672 2.082 0.35156 3.25 0.64062z"/>
  </symbol>
  <symbol id="r" overflow="visible">
   <path d="m12.422-21.281v3.2188h-2.7031c-0.6875 0-1.1719 0.125-1.4531 0.375-0.27344 0.25-0.40625 0.6875-0.40625 1.3125v1.0625h4.1875v3.5h-4.1875v11.812h-4.8906v-11.812h-2.4375v-3.5h2.4375v-1.0625c0-1.6641 0.46094-2.8984 1.3906-3.7031 0.92578-0.80078 2.3672-1.2031 4.3281-1.2031z"/>
  </symbol>
  <symbol id="d" overflow="visible">
   <path d="m9.6406-12.188c-1.0859 0-1.9141 0.39062-2.4844 1.1719-0.57422 0.78125-0.85938 1.9062-0.85938 3.375s0.28516 2.5938 0.85938 3.375c0.57031 0.77344 1.3984 1.1562 2.4844 1.1562 1.0625 0 1.875-0.38281 2.4375-1.1562 0.57031-0.78125 0.85938-1.9062 0.85938-3.375s-0.28906-2.5938-0.85938-3.375c-0.5625-0.78125-1.375-1.1719-2.4375-1.1719zm0-3.5c2.6328 0 4.6914 0.71484 6.1719 2.1406 1.4766 1.418 2.2188 3.3867 2.2188 5.9062 0 2.5117-0.74219 4.4805-2.2188 5.9062-1.4805 1.418-3.5391 2.125-6.1719 2.125-2.6484 0-4.7148-0.70703-6.2031-2.125-1.4922-1.4258-2.2344-3.3945-2.2344-5.9062 0-2.5195 0.74219-4.4883 2.2344-5.9062 1.4883-1.4258 3.5547-2.1406 6.2031-2.1406z"/>
  </symbol>
  <symbol id="q" overflow="visible">
   <path d="m2.5781-20.406h5.875l7.4219 14v-14h4.9844v20.406h-5.875l-7.4219-14v14h-4.9844z"/>
  </symbol>
  <symbol id="p" overflow="visible">
   <path d="m2.1875-5.9688v-9.3438h4.9219v1.5312c0 0.83594-0.007813 1.875-0.015625 3.125-0.011719 1.25-0.015625 2.0859-0.015625 2.5 0 1.2422 0.03125 2.1328 0.09375 2.6719 0.070313 0.54297 0.17969 0.93359 0.32812 1.1719 0.20703 0.32422 0.47266 0.57422 0.79688 0.75 0.32031 0.16797 0.69141 0.25 1.1094 0.25 1.0195 0 1.8203-0.39062 2.4062-1.1719 0.58203-0.78125 0.875-1.8672 0.875-3.2656v-7.5625h4.8906v15.312h-4.8906v-2.2188c-0.74219 0.89844-1.5234 1.5586-2.3438 1.9844-0.82422 0.41406-1.7344 0.625-2.7344 0.625-1.7617 0-3.1055-0.53906-4.0312-1.625-0.92969-1.082-1.3906-2.6602-1.3906-4.7344z"/>
  </symbol>
  <symbol id="o" overflow="visible">
   <path d="m17.75-9.3281v9.3281h-4.9219v-7.1406c0-1.3203-0.03125-2.2344-0.09375-2.7344s-0.16797-0.86719-0.3125-1.1094c-0.1875-0.3125-0.44922-0.55469-0.78125-0.73438-0.32422-0.17578-0.69531-0.26562-1.1094-0.26562-1.0234 0-1.8242 0.39844-2.4062 1.1875-0.58594 0.78125-0.875 1.8711-0.875 3.2656v7.5312h-4.8906v-15.312h4.8906v2.2344c0.73828-0.88281 1.5195-1.5391 2.3438-1.9688 0.83203-0.42578 1.75-0.64062 2.75-0.64062 1.7695 0 3.1133 0.54688 4.0312 1.6406 0.91406 1.0859 1.375 2.6562 1.375 4.7188z"/>
  </symbol>
  <symbol id="n" overflow="visible">
   <path d="m2.5781-20.406h8.7344c2.5938 0 4.582 0.57812 5.9688 1.7344 1.3945 1.1484 2.0938 2.7891 2.0938 4.9219 0 2.1367-0.69922 3.7812-2.0938 4.9375-1.3867 1.1562-3.375 1.7344-5.9688 1.7344h-3.4844v7.0781h-5.25zm5.25 3.8125v5.7031h2.9219c1.0195 0 1.8047-0.25 2.3594-0.75 0.5625-0.5 0.84375-1.2031 0.84375-2.1094 0-0.91406-0.28125-1.6172-0.84375-2.1094-0.55469-0.48828-1.3398-0.73438-2.3594-0.73438z"/>
  </symbol>
  <symbol id="m" overflow="visible">
   <path d="m2.3594-15.312h4.8906v15.031c0 2.0508-0.49609 3.6172-1.4844 4.7031-0.98047 1.082-2.4062 1.625-4.2812 1.625h-2.4219v-3.2188h0.85938c0.92578 0 1.5625-0.21094 1.9062-0.625 0.35156-0.41797 0.53125-1.2461 0.53125-2.4844zm0-5.9688h4.8906v4h-4.8906z"/>
  </symbol>
 </defs>
 <g>
  <path d="m228.23 256.33-101.2-11.832c-1.0078-0.11328-1.9414 0.59766-2.0781 1.6172-0.13281 1.0117 0.57031 1.9531 1.5898 2.1016l98.086 14.359z"/>
  <path d="m208.02 291.34-81.48 11.93c-1.0117 0.14453-1.7266 1.0859-1.5898 2.1016 0.13281 1.0117 1.0742 1.7422 2.0781 1.6172l77.164-9.0234z"/>
  <path d="m259.59 202.02-87.059-64.824c-0.82422-0.60937-1.9883-0.44141-2.6094 0.36328-0.62891 0.81641-0.48047 1.9766 0.32422 2.6133l85.859 67.883z"/>
  <path d="m325.62 440.03-6.8633 58.68c-0.11719 1.0195 0.60547 1.9414 1.6172 2.082 1.0195 0.11328 1.9531-0.57812 2.1016-1.5898l8.6641-59.176z"/>
  <path d="m279.2 440.03-17.086 42.996c-0.37891 0.95312 0.078125 2.0312 1.0234 2.4297 0.94141 0.38672 2.0312-0.050781 2.4414-0.99219l19.164-44.43h-5.543z"/>
  <path d="m275.91 173.75-61.48-77.762c-0.63281-0.80469-1.7969-0.94141-2.6133-0.32422-0.8125 0.62109-0.97266 1.7852-0.36328 2.6094l60.848 81.723z"/>
  <path d="m221.28 440.03-9.8242 13.188c-0.60938 0.82422-0.45312 1.9805 0.36328 2.6094 0.81641 0.62109 1.9766 0.47656 2.6133-0.32422l12.23-15.473z"/>
  <path d="m177.23 344.65-35.957 15.508c-0.94141 0.41016-1.3828 1.4961-0.99219 2.4414 0.39062 0.95313 1.4844 1.3945 2.4297 1.0234l30.582-12.152z"/>
  <path d="m244.43 228.27-101.72-40.414c-0.94531-0.375-2.0312 0.078126-2.4297 1.0234-0.39062 0.94531 0.050782 2.0312 0.99219 2.4414l99.668 42.984z"/>
  <path d="m459.05 234.3 99.668-42.984c0.94141-0.40234 1.3828-1.4961 0.99219-2.4414-0.39062-0.94531-1.4727-1.4102-2.4297-1.0234l-101.71 40.414z"/>
  <path d="m443.89 208.05 85.859-67.883c0.80469-0.63281 0.94531-1.7969 0.32422-2.6133-0.63281-0.80469-1.7969-0.96875-2.6094-0.36328l-87.059 64.828z"/>
  <path d="m427.7 179.99 60.848-81.719c0.60938-0.82422 0.44922-1.9883-0.36328-2.6094-0.81641-0.62109-1.9766-0.48828-2.6133 0.32422l-61.477 77.762z"/>
  <path d="m475.37 262.57 98.086-14.363c1.0117-0.15234 1.7188-1.0859 1.5898-2.1016-0.13281-1.0117-0.94141-1.7148-2.082-1.6172l-101.2 11.832z"/>
  <path d="m296.34 138.36-30.766-71.34c-0.40234-0.94141-1.4883-1.3711-2.4414-0.99219-0.94531 0.39062-1.4062 1.4727-1.0234 2.4297l30.406 76.523z"/>
  <path d="m327.24 84.84-4.7656-32.559c-0.14453-1.0117-1.0703-1.7422-2.1016-1.5898-1.0117 0.13281-1.7422 1.0586-1.6172 2.0781l4.5469 38.891z"/>
  <path d="m376.7 91.66 4.5469-38.891c0.125-1.0195-0.59766-1.9414-1.6172-2.0781-1.0469-0.15625-1.9492 0.57812-2.1016 1.5898l-4.7656 32.559z"/>
  <path d="m407.48 144.98 30.406-76.523c0.375-0.95703-0.078125-2.0312-1.0234-2.4297-0.94531-0.39062-2.0391 0.050781-2.4414 0.99219l-30.766 71.34z"/>
  <path d="m415.26 440.03 19.164 44.43c0.40234 0.93359 1.4961 1.3906 2.4414 0.99219 0.94531-0.39844 1.3984-1.4727 1.0234-2.4297l-17.086-42.996-5.543-0.003907z"/>
  <path d="m473.34 440.03 12.23 15.473c0.63281 0.8125 1.8047 0.94531 2.6133 0.32422 0.8125-0.62891 0.97266-1.7852 0.36328-2.6094l-9.8242-13.188z"/>
  <path d="m368.86 440.03 8.6641 59.176c0.13281 0.92969 0.93359 1.6016 1.8555 1.6016 0.078125 0 0.16406-0.003907 0.24609-0.015626 1.0117-0.13281 1.7422-1.0586 1.6172-2.082l-6.8594-58.684-5.5234-0.003907z"/>
  <path d="m495.81 297.96 77.164 9.0234c1.1406 0.15234 1.9414-0.60547 2.082-1.6172 0.13281-1.0117-0.57813-1.9531-1.5898-2.1016l-81.48-11.934z"/>
  <path d="m526.7 351.48 30.574 12.152c0.95703 0.36328 2.0391-0.078125 2.4297-1.0234 0.39062-0.94531-0.050781-2.0312-0.99219-2.4414l-35.953-15.508z"/>
  <path d="m600.15 273.86-119.26-1.7305 4.1289 7.1523 115.13-1.668c1.0195-0.015626 1.8477-0.85156 1.8477-1.875 0-1.0273-0.82422-1.8633-1.8477-1.8789z"/>
  <path d="m346.88 440.03 1.2422 85.863c0.015625 1.0195 0.85156 1.8477 1.875 1.8477 1.0234 0 1.8594-0.82422 1.875-1.8477l1.2422-85.863z"/>
  <path d="m467.11 248.25 125.01-35.441c0.98438-0.28125 1.5625-1.3008 1.3008-2.2891-0.26172-0.98438-1.25-1.5781-2.2734-1.332l-127.94 32.301z"/>
  <path d="m511.22 440.03 14.332 13.922c0.73828 0.71875 1.9102 0.69922 2.6367-0.015625 0.72266-0.72656 0.73438-1.8984 0.015625-2.6367l-10.949-11.266z"/>
  <path d="m219.11 272.14-119.26 1.7266c-1.0234 0.015625-1.8477 0.85156-1.8477 1.875 0 1.0234 0.82422 1.8594 1.8477 1.875l115.13 1.668z"/>
  <path d="m236.8 241.49-127.94-32.305c-0.97266-0.24609-2.0039 0.33984-2.2734 1.332-0.26172 0.99219 0.3125 2.0117 1.3008 2.2891l125.01 35.441z"/>
  <path d="m441.64 440.03 31.809 53.289c0.52734 0.87891 1.6758 1.1641 2.5469 0.66797 0.89062-0.51562 1.2031-1.6445 0.69922-2.543l-28.699-51.414z"/>
  <path d="m267.64 188.07-93.199-90.535c-0.73438-0.71875-1.9102-0.70703-2.6328 0.015625-0.72656 0.72656-0.73438 1.8984-0.015625 2.6328l91.945 94.652z"/>
  <path d="m252.18 214.84-117.88-65.805c-0.89453-0.5-2.0273-0.18359-2.5352 0.69922-0.51562 0.89062-0.21875 2.0234 0.66016 2.5469l115.93 69.195z"/>
  <path d="m194.94 313.99-87.051 24.684c-0.98438 0.28125-1.5664 1.3008-1.3008 2.2852 0.26953 0.99609 1.293 1.5742 2.2734 1.332l81.641-20.613z"/>
  <path d="m551.57 394.55 14.133 7.8906c0.89062 0.49219 2.0273 0.19531 2.543-0.69922 0.51562-0.89062 0.21094-2.0234-0.66797-2.5469l-20.34-12.141z"/>
  <path d="m152.76 387.05-20.332 12.137c-0.87891 0.52734-1.1758 1.6641-0.66016 2.5469 0.51562 0.88672 1.6406 1.2031 2.5352 0.69922l14.129-7.8867z"/>
  <path d="m252 440.03-28.699 51.414c-0.5 0.89453-0.19141 2.0273 0.69922 2.543 0.89453 0.50781 2.0273 0.21094 2.5469-0.66797l31.809-53.289z"/>
  <path d="m302.85 440.03-19.402 76.852c-0.24609 0.99609 0.34766 2.0117 1.332 2.2734 1.0117 0.27344 2.0117-0.3125 2.2891-1.3008l22.062-77.824-6.2812 0.003906z"/>
  <path d="m182.74 440.03-10.949 11.266c-0.71094 0.73828-0.70703 1.9102 0.015626 2.6367 0.72656 0.71094 1.8984 0.73437 2.6328 0.015624l14.332-13.922z"/>
  <path d="m390.87 440.03 22.07 77.824c0.27344 0.98438 1.3047 1.5664 2.2852 1.3008 0.99219-0.26172 1.5898-1.2773 1.332-2.2734l-19.402-76.852z"/>
  <path d="m285.55 157.04-59.008-98.875c-0.51953-0.875-1.6523-1.1719-2.5469-0.66016-0.89062 0.51562-1.1992 1.6445-0.69922 2.5352l58.133 104.14z"/>
  <path d="m310.04 114.64-22.973-81.008c-0.28125-0.98438-1.2773-1.5664-2.2891-1.3008-0.99219 0.26953-1.5859 1.2773-1.332 2.2734l22.152 87.734z"/>
  <path d="m418.57 164.19 58.129-104.14c0.50391-0.89453 0.19141-2.0273-0.69922-2.5352-0.875-0.50781-2.0234-0.22266-2.5469 0.66016l-59.012 98.867z"/>
  <path d="m394.4 122.33 22.152-87.734c0.25391-0.99609-0.33984-2.0039-1.332-2.2734-0.97266-0.26953-2.0117 0.3125-2.2852 1.3008l-22.973 81.016z"/>
  <path d="m436.26 194.83 91.945-94.645c0.71875-0.73438 0.70703-1.9102-0.015625-2.6328-0.72656-0.72656-1.8984-0.73828-2.6367-0.015625l-93.195 90.531z"/>
  <path d="m509.5 321.68 81.641 20.613c1.0117 0.25781 2.0117-0.33594 2.2734-1.332 0.26172-0.98438-0.3125-2.0117-1.3008-2.2852l-87.055-24.684z"/>
  <path d="m451.64 221.48 115.93-69.188c0.87891-0.52734 1.1758-1.6562 0.66797-2.5469-0.51563-0.89062-1.6523-1.1875-2.543-0.69922l-117.88 65.797z"/>
  <path d="m350 62.43-213.1 369.09h426.19zm187.11 354.08h-8.3789c1.9023-1.5234 3.7695-3.1367 5.6562-4.7109zm-12.465 0h-23.273c8.3906-5.8594 16.645-12.242 24.734-19.059l7.0156 12.152c-2.8125 2.3477-5.625 4.6641-8.4766 6.9062zm-29.16 0h-24.723c16.156-9.2773 31.914-20.461 47.051-33.426l6.6016 11.43c-9.4336 7.9805-19.105 15.355-28.93 21.996zm20.414-36.738c-16.922 14.555-34.625 26.879-52.797 36.734h-25.691c25.199-11.145 49.359-27.133 72.141-47.734zm-350.66 32.699c1.6055 1.3438 3.1992 2.7344 4.8164 4.043h-7.1523zm8.8711 4.0391c-2.5547-2.0273-5.0742-4.1211-7.6055-6.2383l7.0508-12.207c7.7734 6.5781 15.691 12.773 23.727 18.453l-23.172-0.003906zm29.09 0c-9.4766-6.4805-18.82-13.637-27.949-21.391l6.6406-11.504c14.785 12.73 30.156 23.738 45.926 32.895zm32.207 0c-17.758-9.7383-35.051-21.895-51.598-36.211l6.3945-11.07c22.348 20.34 46 36.227 70.688 47.281zm38.551 0c-28.48-10.961-55.699-28.348-81.195-51.715l5.5312-9.582c35.578 33.234 75.453 54.047 117.17 61.297zm233.03-52.164c-25.93 23.609-53.664 41.133-82.668 52.164h-41.547c42.258-7.2969 82.691-28.27 118.72-61.691zm-157 48.844c-0.36328 0-0.71875 0.003906-1.0742 0.003906-65.363 0-115.51-33.422-147.43-63.516l4.832-8.3789c30.891 29.859 79.141 62.422 142.7 62.422 0.33594 0 0.67188-0.003906 1.0078-0.003906 63.926-0.34766 112.45-32.973 143.47-62.742l4.8008 8.3164c-32.07 30.023-82.531 63.535-148.31 63.898zm-0.87109-26.359h0.90625c60.621-0.32422 105.77-32.121 134.52-61.355l5.0781 8.7969c-29.934 29.133-77.234 61.609-139.64 61.945-0.32422 0-0.63672 0.003906-0.96484 0.003906-62.008 0-109.03-32.418-138.82-61.633l5.1172-8.8711c28.633 29.348 73.531 61.113 133.8 61.113zm130.88-69.234c-27.453 28.465-71.176 60.168-130.02 60.48h-0.85547c-58.469 0-101.93-31.672-129.25-60.238l5.5039-9.5352c22.707 25.531 64.641 60.594 123.88 60.594h0.77344c59.551-0.30859 101.71-35.348 124.51-60.754zm-10.719-18.562c-21.016 24.164-61.633 59.562-119.3 59.859h-0.71875c-57.328 0-97.699-35.438-118.62-59.711l6.3125-10.93c13.859 18.52 51.703 60.027 112.45 60.027h0.63672c61.047-0.29297 99.074-41.664 112.98-60.07zm-186.84-89.574c21.086-11.16 43.668-16.879 67.262-16.879h0.29297c23.762 0.050781 46.496 5.8516 67.715 17.121l11.234 19.461c-19.234-13.934-45.457-25.898-78.922-25.961h-0.25781c-33.285 0-59.395 11.871-78.574 25.754zm67.559-104.23c2.4922 0.003906 4.9883 0.074219 7.4805 0.15234l6.3516 11c-4.5938-0.29297-9.2109-0.45312-13.82-0.46484-4.6133 0.015625-9.2305 0.18359-13.82 0.44922l6.3672-11.027c2.4961-0.074219 4.9922-0.12109 7.4414-0.10938zm-5.2656-3.6602 5.2695-9.1289 5.2812 9.1523c-1.7578-0.039062-3.5234-0.10547-5.2734-0.10547-1.7539 0.003906-3.5195 0.046874-5.2773 0.082031zm-22.262 38.551c9.1016-1.2227 18.379-1.832 27.52-1.8359 9.2617 0.023438 18.508 0.67188 27.59 1.9375l6.1445 10.641c-11.07-1.9805-22.344-3.0859-33.719-3.1094-11.352-0.015624-22.602 0.99219-33.633 2.9297zm10.688-18.504c5.5703-0.41016 11.176-0.6875 16.84-0.69531 5.6445 0.011719 11.277 0.32031 16.891 0.76562l6.8047 11.789c-7.8281-0.90625-15.746-1.4297-23.684-1.4453-8.0117-0.0625-15.863 0.4375-23.625 1.3203zm-21.781 37.723c12.656-2.6719 25.75-4.0781 38.617-4.082 13.098 0.027343 26.066 1.4844 38.707 4.2109l6.4805 11.223c-14.66-3.9609-29.781-6.0156-45.168-6.043h-0.35938c-15.223 0-30.199 1.9727-44.711 5.8398zm-12.801 22.164c16.438-5.3711 33.578-8.1094 51.07-8.1094h0.33984c17.664 0.035156 34.957 2.8438 51.555 8.3086l7.3242 12.684c-18.723-7.8008-38.438-11.777-58.855-11.816h-0.30859c-20.277 0-39.855 3.9219-58.457 11.633zm104.8 138.22c10.371-11.879 16.66-27.223 16.66-43.988 0-17.141-6.5977-32.781-17.395-44.762 27.766 14.09 44.879 35.926 50.922 44.688-6.1289 8.6211-23.215 29.918-50.188 44.062zm-156.96-44.055c6.0469-8.8086 23.238-30.84 51.152-44.918-10.914 12.012-17.602 27.738-17.602 44.992 0 17.051 6.5234 32.613 17.215 44.574-27.242-14.152-44.605-35.941-50.766-44.648zm163.61 0.066406c0 27.59-19.992 50.703-46.688 56.594-4.3359 0.53125-8.7578 0.91406-13.379 0.93359-3.8867 0.035156-7.6562-0.16797-11.34-0.51562-27.676-5.1641-48.652-28.746-48.652-57.012 0-27.977 20.551-51.398 47.812-56.875 3.8867-0.39844 7.8633-0.65625 11.984-0.65625h0.21875c4.3789 0.003907 8.5781 0.32031 12.691 0.77344 27.023 5.6523 47.352 28.938 47.352 56.758z"/>
  <path d="m350 240.58c-20.457 0-37.102 15.77-37.102 35.156s16.645 35.156 37.102 35.156 37.102-15.773 37.102-35.156c0-19.383-16.645-35.156-37.102-35.156zm-30.844 35.156c0-15.938 13.836-28.902 30.844-28.902 17.012 0 30.844 12.965 30.844 28.902 0 15.941-13.836 28.906-30.844 28.906s-30.844-12.965-30.844-28.906z"/>
  <path d="m359.7 288.15c0.55469-2.6406-9.7031-9.918-9.7031-12.414 0-2.7148 10.051-10.812 9.7031-12.465-0.71094-3.3594-5.5-6.9492-9.7031-6.9492-9.1094 0-16.504 10.297-16.504 19.414 0 9.1094 7.3867 19.414 16.504 19.414 3.9648 0 9.1094-4.1445 9.7031-7z"/>
  <use x="70" y="644" xlink:href="#w"/>
  <use x="90.550781" y="644" xlink:href="#b"/>
  <use x="104.359375" y="644" xlink:href="#a"/>
  <use x="123.347656" y="644" xlink:href="#f"/>
  <use x="142.242188" y="644" xlink:href="#c"/>
  <use x="155.628906" y="644" xlink:href="#a"/>
  <use x="174.617188" y="644" xlink:href="#l"/>
  <use x="204.410156" y="644" xlink:href="#k"/>
  <use x="224.453125" y="644" xlink:href="#j"/>
  <use x="252.453125" y="644" xlink:href="#a"/>
  <use x="271.441406" y="644" xlink:href="#e"/>
  <use x="300.617188" y="644" xlink:href="#i"/>
  <use x="310.214844" y="644" xlink:href="#v"/>
  <use x="319.8125" y="644" xlink:href="#a"/>
  <use x="338.804688" y="644" xlink:href="#u"/>
  <use x="358.84375" y="644" xlink:href="#b"/>
  <use x="372.65625" y="644" xlink:href="#f"/>
  <use x="391.546875" y="644" xlink:href="#t"/>
  <use x="411.59375" y="644" xlink:href="#h"/>
  <use x="431.523437" y="644" xlink:href="#i"/>
  <use x="441.125" y="644" xlink:href="#g"/>
  <use x="457.71875" y="644" xlink:href="#s"/>
  <use x="70" y="672" xlink:href="#r"/>
  <use x="82.183594" y="672" xlink:href="#b"/>
  <use x="95.992188" y="672" xlink:href="#d"/>
  <use x="115.226562" y="672" xlink:href="#e"/>
  <use x="154.152344" y="672" xlink:href="#c"/>
  <use x="167.535156" y="672" xlink:href="#h"/>
  <use x="187.46875" y="672" xlink:href="#a"/>
  <use x="216.207031" y="672" xlink:href="#q"/>
  <use x="239.640625" y="672" xlink:href="#d"/>
  <use x="258.878906" y="672" xlink:href="#p"/>
  <use x="278.8125" y="672" xlink:href="#o"/>
  <use x="308.492188" y="672" xlink:href="#n"/>
  <use x="329.015625" y="672" xlink:href="#b"/>
  <use x="342.820312" y="672" xlink:href="#d"/>
  <use x="362.058594" y="672" xlink:href="#m"/>
  <use x="371.65625" y="672" xlink:href="#a"/>
  <use x="390.648438" y="672" xlink:href="#g"/>
  <use x="407.242188" y="672" xlink:href="#c"/>
 </g>
</svg>
